<svg width="1440" height="686" viewBox="0 0 1440 686" fill="none" xmlns="http://www.w3.org/2000/svg">
<path d="M508.919 -87.6055C478.41 -23.5414 484.18 16.6238 526.225 32.89C589.295 57.2893 739.261 67.0488 801.946 119.977C864.63 172.905 1055.76 131.988 1088.45 41.1476C1121.14 -49.6926 1179.99 -189.707 869.646 -189.707C662.746 -189.707 542.507 -155.674 508.92 -87.6055H508.919Z" fill="#FFFA72"/>
<path d="M0.880608 38.8845C-84.545 218.264 -68.3901 330.727 49.3366 376.272C225.931 444.59 645.836 471.917 821.356 620.116C996.87 768.313 1532.04 653.746 1623.56 399.393C1715.09 145.041 1879.88 -247 1010.91 -247C431.596 -247 94.9256 -151.707 0.883514 38.8845H0.880608Z" fill="#D6F2FF"/>
<path d="M43.2173 28.3437C-37.632 198.114 -22.3425 304.551 89.0774 347.657C256.212 412.315 653.622 438.178 819.739 578.438C985.85 718.695 1492.35 610.266 1578.97 369.54C1665.59 128.813 1821.56 -242.226 999.142 -242.226C450.859 -242.226 132.224 -152.038 43.22 28.3437H43.2173Z" fill="#C7E1F3"/>
<path d="M85.5535 17.8028C9.28059 177.963 23.7046 278.376 128.818 319.042C286.491 380.04 661.407 404.438 818.121 536.759C974.83 669.078 1452.66 566.786 1534.38 339.686C1616.1 112.585 1763.23 -237.451 987.369 -237.451C470.121 -237.451 169.522 -152.368 85.5561 17.8028H85.5535Z" fill="#B8CFE6"/>
<path d="M110.469 48.4714C38.7723 199.022 52.3308 293.41 151.137 331.636C299.35 388.974 651.771 411.909 799.082 536.291C946.388 660.67 1395.55 564.516 1472.36 351.041C1549.18 137.567 1687.49 -191.467 958.175 -191.467C471.962 -191.467 189.399 -111.489 110.471 48.4714H110.469Z" fill="#A9BEDA"/>
<path d="M152.805 37.9306C85.6851 178.872 98.3782 267.235 190.878 303.021C329.631 356.699 659.556 378.17 797.465 494.613C935.368 611.053 1355.86 521.036 1427.77 321.188C1499.68 121.339 1629.16 -186.693 946.403 -186.693C491.225 -186.693 226.698 -111.82 152.808 37.9306H152.805Z" fill="#9AADCE"/>
<path d="M195.142 27.3898C132.598 158.721 144.426 241.06 230.619 274.406C359.911 324.424 667.342 344.431 795.847 452.934C924.348 561.435 1316.17 477.556 1383.18 291.334C1450.19 105.111 1570.84 -181.919 934.631 -181.919C510.487 -181.919 263.996 -112.151 195.144 27.3898H195.142Z" fill="#8B9BC1"/>
<path d="M237.478 16.8489C179.511 138.571 190.473 214.885 270.359 245.79C390.191 292.149 675.127 310.692 794.23 411.256C913.328 511.818 1276.48 434.076 1338.58 261.48C1400.69 88.8834 1512.51 -177.144 922.858 -177.144C529.75 -177.144 301.295 -112.481 237.48 16.8489H237.478Z" fill="#7D8AB5"/>
<path d="M279.815 6.30809C226.424 118.42 236.521 188.709 310.1 217.175C420.472 259.874 682.912 276.953 792.612 369.578C902.308 462.201 1236.79 390.597 1293.99 231.626C1351.2 72.6557 1454.19 -172.37 911.086 -172.37C549.012 -172.37 338.593 -112.812 279.817 6.30809H279.815Z" fill="#6E79A9"/>
<path d="M322.152 -4.23276C273.337 98.2699 282.568 162.534 349.841 188.56C450.752 227.599 690.698 243.214 790.995 327.9C891.288 412.583 1197.1 347.117 1249.4 201.772C1301.7 56.4279 1395.87 -167.595 899.314 -167.595C568.275 -167.595 375.892 -113.142 322.153 -4.23276H322.152Z" fill="#5F679C"/>
<path d="M406.825 -25.3144C367.163 57.969 374.663 110.184 429.322 131.33C511.312 163.049 706.268 175.736 787.76 244.543C869.248 313.349 1117.72 260.157 1160.21 142.065C1202.71 23.9724 1279.22 -158.047 875.769 -158.047C606.8 -158.047 450.488 -113.803 406.826 -25.3144H406.825Z" fill="#414584" fill-opacity="0.49"/>
<path d="M449.161 -35.8553C414.076 37.8185 420.711 84.0085 469.063 102.715C541.593 130.774 714.054 141.997 786.142 202.865C858.228 263.731 1078.03 216.677 1115.62 112.211C1153.21 7.74455 1220.89 -153.272 863.996 -153.272C626.062 -153.272 487.787 -114.134 449.162 -35.8553H449.161Z" fill="#323377" fill-opacity="0.35"/>
</svg>
