<svg width="1440" height="703" viewBox="0 0 1440 703" fill="none" xmlns="http://www.w3.org/2000/svg">
<path d="M52.2509 44.1323C-30.5909 226.805 -14.9246 341.332 99.2412 387.713C270.494 457.285 677.699 485.113 847.91 636.033C1018.11 786.95 1537.09 670.28 1625.85 411.259C1714.61 152.237 1874.42 -247 1031.73 -247C469.939 -247 143.451 -149.958 52.2537 44.1323H52.2509Z" fill="#2B3269"/>
<path d="M93.307 33.3977C14.9031 206.284 29.7301 314.676 137.78 358.572C299.859 424.417 685.249 450.755 846.341 593.59C1007.43 736.422 1498.61 626.002 1582.61 380.857C1666.61 135.711 1817.86 -242.138 1020.32 -242.138C488.619 -242.138 179.622 -150.295 93.3096 33.3977H93.307Z" fill="#394183"/>
<path d="M134.363 22.6637C60.3969 185.764 74.3846 288.02 176.318 329.432C329.223 391.55 692.798 416.397 844.772 551.146C996.741 685.894 1460.12 581.724 1539.36 350.455C1618.61 119.186 1761.3 -237.276 1008.9 -237.276C507.298 -237.276 215.792 -150.631 134.365 22.6637H134.363Z" fill="#48509F"/>
<path d="M152.805 37.9307C85.6851 178.872 98.3782 267.235 190.878 303.021C329.631 356.699 659.556 378.17 797.465 494.613C935.368 611.053 1355.86 521.036 1427.77 321.188C1499.68 121.339 1629.16 -186.693 946.403 -186.693C491.225 -186.693 226.698 -111.82 152.808 37.9307H152.805Z" fill="#4F59BB"/>
<path d="M195.142 27.3898C132.598 158.721 144.426 241.06 230.619 274.406C359.911 324.424 667.342 344.431 795.847 452.934C924.348 561.435 1316.17 477.556 1383.18 291.334C1450.19 105.111 1570.84 -181.918 934.631 -181.918C510.487 -181.918 263.996 -112.15 195.144 27.3898H195.142Z" fill="#656EC2" fill-opacity="0.44"/>
<path d="M237.478 16.849C179.511 138.571 190.473 214.885 270.359 245.791C390.191 292.149 675.127 310.692 794.23 411.256C913.328 511.818 1276.48 434.077 1338.58 261.48C1400.69 88.8835 1512.51 -177.144 922.858 -177.144C529.75 -177.144 301.295 -112.481 237.48 16.849H237.478Z" fill="#616BC8"/>
<path d="M279.815 6.30821C226.424 118.421 236.521 188.71 310.1 217.175C420.472 259.874 682.912 276.953 792.612 369.578C902.308 462.201 1236.79 390.597 1293.99 231.626C1351.2 72.6558 1454.19 -172.37 911.086 -172.37C549.012 -172.37 338.593 -112.812 279.817 6.30821H279.815Z" fill="#6C74CA"/>
<path d="M322.152 -4.23263C273.337 98.27 282.568 162.534 349.841 188.56C450.752 227.599 690.698 243.214 790.995 327.9C891.288 412.583 1197.1 347.117 1249.4 201.772C1301.7 56.428 1395.87 -167.595 899.314 -167.595C568.275 -167.595 375.892 -113.142 322.153 -4.23263H322.152Z" fill="#717BDA"/>
<path d="M364.488 -14.7735C320.25 78.1196 328.616 136.359 389.581 159.945C481.032 195.324 698.483 209.475 789.377 286.221C880.268 362.966 1157.41 303.637 1204.81 171.919C1252.2 40.2002 1337.54 -162.821 887.541 -162.821C587.537 -162.821 413.19 -113.473 364.49 -14.7735H364.488Z" fill="#8C93DB" fill-opacity="0.4"/>
<path d="M406.825 -25.3143C367.163 57.9691 374.663 110.184 429.322 131.33C511.312 163.049 706.268 175.736 787.76 244.543C869.248 313.349 1117.72 260.157 1160.21 142.065C1202.71 23.9725 1279.22 -158.046 875.769 -158.046C606.8 -158.046 450.488 -113.803 406.826 -25.3143H406.825Z" fill="#939DFF" fill-opacity="0.49"/>
<path d="M510.202 -38.9987C478.172 32.532 484.23 77.3783 528.371 95.5402C594.584 122.783 752.026 133.68 817.837 192.777C883.645 251.873 1084.3 206.188 1118.62 104.76C1152.94 3.33282 1214.73 -153 888.911 -153C671.698 -153 545.464 -115 510.203 -38.9987H510.202Z" fill="#DFE2FF" fill-opacity="0.19"/>
</svg>
